<?xml version="1.0" encoding="iso-8859-1"?>
<!-- Generator: Adobe Illustrator 16.0.0, SVG Export Plug-In . SVG Version: 6.00 Build 0)  -->
<!DOCTYPE svg PUBLIC "-//W3C//DTD SVG 1.1//EN" "http://www.w3.org/Graphics/SVG/1.1/DTD/svg11.dtd">
<svg version="1.1" id="Capa_1" xmlns="http://www.w3.org/2000/svg" xmlns:xlink="http://www.w3.org/1999/xlink" x="0px" y="0px"
	 width="887.879px" height="887.879px" viewBox="0 0 887.879 887.879" style="enable-background:new 0 0 887.879 887.879;"
	 xml:space="preserve">
<g>
	<g>
		<path d="M345.249,330.703c-67.403,0-122.518,52.566-126.613,118.938h-0.254v111.008h253.733V449.64h-0.254
			C467.766,383.269,412.651,330.703,345.249,330.703z M338.2,528.931h-88.102v-74.198l0.194-3.14
			c2.939-47.644,40.941-85.449,87.908-88.914L338.2,528.931L338.2,528.931z M440.398,528.931h-88.103V362.679
			c46.968,3.465,84.969,41.271,87.908,88.914l0.192,3.14v74.198H440.398z"/>
		<path d="M877.396,154.908c0-0.004-0.005-0.009-0.007-0.015C846.889,83.721,776.18,33.853,693.8,33.853
			c-82.379,0-153.087,49.868-183.591,121.041c-4.145,10.359-7.764,20.673-10.486,31.513c12.582,8.295,25.8,15.599,39.459,21.954
			v44.411l-23.148-23.149l-159.222-65.433l-159.219,65.432L66.258,360.954L0,497.215h23.788h7.929h47.575v356.812h139.09h253.733
			h133.144h29.073h129.387h46.252h46.377V204.538c0.735-0.367,17.848-9.636,28.091-15.948c-1.171,0.8-1.194,0.874,3.44-2.184
			C887.829,186.21,882.482,168.301,877.396,154.908z M537.685,171.936c8.317-21.131,20.977-40.525,37.527-57.065
			c29.312-29.296,67.571-46.401,108.621-48.791c-17.026,16.743-54.562,61.325-63.344,135.794
			c-10.849-2.304-21.517-5.128-31.972-8.474C570.437,187.615,553.445,180.433,537.685,171.936z M322.822,727.159l-72.724,72.725
			V654.437L322.822,727.159z M272.526,632.01h145.445l-72.723,72.724L272.526,632.01z M272.526,822.31l72.723-72.724l72.723,72.724
			H272.526z M440.398,799.883l-72.724-72.725l72.724-72.723V799.883z M602.615,568.576V822.31h-130.5V600.293H218.382V822.31
			H111.008V552.719v-55.505v-31.717v-2.298l11.729-24.711L232.895,318.75l123.915-60.101l123.914,60.101l110.16,119.739
			l11.73,19.079L602.615,568.576L602.615,568.576z M614.343,420.109L496.144,291.631l-139.333-64.009l-139.332,64.009
			L99.278,420.109l-20.305,45.388h-0.318H48.08l44.245-85.756l122.399-122.399l142.086-61.436l142.088,61.435L621.297,379.74
			l44.245,85.756H634.65v0.001L614.343,420.109z M675.034,822.31h-40.702V497.214h40.702V822.31z M824.631,822.31H809.97V264.647
			l-46.252,9.691V822.31h-42.433V274.405h-46.252v143.45l-27.669-56.902l-14.25-14.25v-71.924l-46.252-11.453v37.125l-15.966-15.964
			V221.18c37.428,12.962,79.049,20.19,122.902,20.19c46.979,0,91.395-8.3,130.831-23.054L824.631,822.31L824.631,822.31z
			 M799.084,193.399c-11.567,3.7-23.396,6.75-35.438,9.176c0.152-0.233,0.308-0.466,0.449-0.701
			c-8.812-74.706-46.553-119.332-63.502-135.951c42.248,1.671,81.729,18.895,111.798,48.947
			c16.553,16.54,29.208,35.932,37.526,57.065C834.156,180.433,817.164,187.615,799.084,193.399z"/>
	</g>
</g>
<g>
</g>
<g>
</g>
<g>
</g>
<g>
</g>
<g>
</g>
<g>
</g>
<g>
</g>
<g>
</g>
<g>
</g>
<g>
</g>
<g>
</g>
<g>
</g>
<g>
</g>
<g>
</g>
<g>
</g>
</svg>
