<?xml version="1.0" encoding="iso-8859-1"?>
<!-- Generator: Adobe Illustrator 16.0.0, SVG Export Plug-In . SVG Version: 6.00 Build 0)  -->
<!DOCTYPE svg PUBLIC "-//W3C//DTD SVG 1.1//EN" "http://www.w3.org/Graphics/SVG/1.1/DTD/svg11.dtd">
<svg version="1.1" id="shape-wine" xmlns="http://www.w3.org/2000/svg" xmlns:xlink="http://www.w3.org/1999/xlink" x="0px" y="0px"
	 width="370.223px" height="370.223px" viewBox="0 0 370.223 370.223" style="enable-background:new 0 0 370.223 370.223;"
	 xml:space="preserve">
<g>
	<g>
		<path d="M164.202,73.032L54.555,55.595c-0.842-0.134-1.698-0.202-2.546-0.202c-7.902,0-14.797,5.883-16.038,13.686l-10.045,63.163
			c-3.242,20.386-0.931,39.388,6.685,54.95c7.532,15.392,19.961,26.687,36.12,32.894l-13.992,87.989
			c-0.198,1.246-0.302,2.248-0.729,2.396c-5.979,2.081-19.833,0.791-29.46,0.791c-2.287,0-4.094-0.034-5.371-0.102
			c-0.96-0.051-1.826-0.075-2.646-0.075c-11.955,0-15.476,6.36-16.324,11.697c-1.418,8.919,4.444,15.761,14.935,17.43l98.23,15.621
			c1.408,0.224,2.79,0.338,4.107,0.338c8.355,0,14.295-4.704,15.499-12.276c1.988-12.512-10.369-15.839-14.431-16.933
			c-7.283-1.959-25.686-8.495-32.934-11.475c-0.443-0.182-0.098-1.328,0.121-2.701l13.959-87.777
			c17.426-0.895,32.86-7.887,44.827-20.359c11.908-12.41,19.902-29.656,23.117-49.872l10.045-63.164
			C179.091,82.774,173.042,74.438,164.202,73.032z M166.822,89.887l-10.045,63.164c-5.99,37.664-29.339,61.061-60.936,61.057
			c0,0-5.525-0.172-5.754,1.285c-3.6,22.971-15.214,95.667-15.214,95.667c-1.707,10.734,4.251,13.728,5.722,14.294l-0.001,0.002
			c1.069,0.401,26.288,9.861,35.097,12.23c6.86,1.847,6.64,3.238,6.426,4.583c-0.179,1.123-0.478,3.003-4.636,3.003
			c-0.74,0-1.541-0.068-2.379-0.201l-98.23-15.621c-6.407-1.02-5.966-3.795-5.8-4.84c0.207-1.301,0.386-2.424,5.461-2.424
			c0.673,0,1.365,0.022,2.068,0.06c1.488,0.079,3.434,0.117,5.948,0.117c11.557,0,30.415-0.82,31.212-0.854l0.41-0.033
			c0.792-0.094,7.783-1.22,9.43-11.571c0,0,11.561-71.716,15.211-95.653c0.301-1.972-4.283-2.99-4.283-2.99
			c-30.563-9.574-45.789-39.151-39.74-77.188l10.045-63.163c0.442-2.784,3.168-4.794,5.992-4.349l109.647,17.437
			C165.324,84.349,167.275,87.037,166.822,89.887z"/>
		<path d="M146.281,107.985c-11.979-1.905-49.599,35.422-79.313,30.696c-4.729-0.752-20.103-12.425-21.489-3.711
			c-5.361,33.714,7.938,63.856,41.656,69.218c33.717,5.362,55.709-19.168,61.07-52.881l5.305-33.36
			C154.261,113.218,151.009,108.737,146.281,107.985z"/>
		<path d="M370.013,322.783c-0.85-5.337-4.369-11.697-16.324-11.697c-0.819,0-1.686,0.023-2.646,0.075
			c-1.274,0.066-3.082,0.101-5.37,0.101c-9.624,0-22.906,0.427-29.46-0.791c-0.443-0.083-0.529-1.148-0.729-2.396l-13.992-87.99
			c16.159-6.208,28.588-17.502,36.12-32.893c7.615-15.562,9.927-34.563,6.685-54.951l-10.045-63.164
			c-1.241-7.802-8.136-13.685-16.038-13.685c-0.848,0-1.704,0.068-2.546,0.202L206.021,73.031
			c-8.84,1.406-14.889,9.742-13.483,18.583l10.045,63.164c3.216,20.216,11.209,37.46,23.117,49.871
			c11.967,12.471,27.401,19.465,44.827,20.36l13.959,87.777c0.219,1.374,0.545,2.478,0.121,2.702
			c-8.183,4.333-25.649,9.515-32.936,11.474c-4.061,1.094-16.417,4.421-14.43,16.934c1.204,7.571,7.145,12.275,15.499,12.275
			c1.317,0,2.699-0.114,4.107-0.338l98.229-15.621C365.568,338.543,371.431,331.702,370.013,322.783z M353.35,329.349l-98.23,15.621
			c-0.838,0.133-1.639,0.201-2.379,0.201c-4.158,0-4.457-1.88-4.636-3.002c-0.214-1.347-0.436-2.737,6.425-4.584
			c8.81-2.369,34.028-11.829,35.098-12.23l-0.001-0.002c1.472-0.566,7.43-3.56,5.723-14.294c0,0-10.878-68.38-15.225-94.789
			c-0.386-2.344-5.744-2.162-5.744-2.162c-31.597,0-54.944-23.396-60.936-61.058l-10.045-63.163
			c-0.453-2.851,1.498-5.539,4.349-5.993l109.647-17.437c2.821-0.444,5.55,1.565,5.992,4.348l10.045,63.163
			c6.049,38.037-9.179,67.614-39.74,77.188c0,0-4.704,1.144-4.329,3.644c3.628,24.185,15.257,95.001,15.257,95.001
			c1.646,10.35,8.638,11.476,9.43,11.57l0.409,0.032c0.798,0.035,19.656,0.855,31.213,0.855c2.516,0,4.461-0.038,5.947-0.116
			c0.704-0.037,1.396-0.06,2.069-0.06c5.075,0,5.254,1.124,5.461,2.424C359.315,325.554,359.757,328.331,353.35,329.349z"/>
		<path d="M324.743,134.97c-1.387-8.714-16.761,2.959-21.489,3.711c-29.715,4.726-67.333-32.602-79.312-30.696
			c-4.729,0.752-7.979,5.234-7.229,9.962l5.305,33.36c5.361,33.713,27.354,58.243,61.069,52.881
			C316.806,198.827,330.104,168.684,324.743,134.97z"/>
		<path d="M176.044,53.897l-27-17c-2.568-1.617-5.966-0.847-7.585,1.724c-1.618,2.571-0.847,5.966,1.724,7.585l27,17
			c0.91,0.573,1.924,0.846,2.926,0.846c1.826,0,3.614-0.91,4.659-2.57C179.385,58.911,178.614,55.515,176.044,53.897z"/>
		<path d="M196.118,64.051c1.002,0,2.017-0.273,2.927-0.846l27-17c2.569-1.619,3.342-5.014,1.724-7.585
			c-1.62-2.571-5.016-3.342-7.585-1.724l-27,17c-2.57,1.619-3.342,5.015-1.724,7.585C192.506,63.142,194.292,64.051,196.118,64.051z
			"/>
		<path d="M184.613,14.051c-3.037,0-5.5,2.462-5.5,5.5v27c0,3.038,2.463,5.5,5.5,5.5s5.5-2.462,5.5-5.5v-27
			C190.113,16.513,187.65,14.051,184.613,14.051z"/>
	</g>
</g>
<g>
</g>
<g>
</g>
<g>
</g>
<g>
</g>
<g>
</g>
<g>
</g>
<g>
</g>
<g>
</g>
<g>
</g>
<g>
</g>
<g>
</g>
<g>
</g>
<g>
</g>
<g>
</g>
<g>
</g>
</svg>
